<svg xmlns="http://www.w3.org/2000/svg" viewBox="0 0 249 49.73"><defs><style>.cls-1,.cls-5{fill:#fff;}.cls-2,.cls-3,.cls-4,.cls-5{isolation:isolate;}.cls-3,.cls-4{font-size:27.46px;font-family:DeValencia-Regular, De Valencia;}.cls-3{fill:#f8f7f7;}.cls-4{fill:#f5ff00;}.cls-5{font-size:22.17px;font-family:BodoniSvtyTwoITCTT-Book, "Bodoni 72";}</style></defs><title>logo3</title><g id="Layer_2" data-name="Layer 2"><g id="Layer_1-2" data-name="Layer 1"><g id="logo"><g id="laptopVector"><path id="Path_1" data-name="Path 1" d="M31.26,24.72l9.44,4L46,30.88a2.3,2.3,0,0,1,.79.42c.34.37.81.83.81,1.24s-.55.87-1,1c-1.66.59-3.36,1.08-5.06,1.58-5.4,1.6-10.83,3.13-16.21,4.81a7.47,7.47,0,0,1-6.13-.77c-6.05-3.44-12-7-18-10.55a2,2,0,0,1-1-2.87A9.64,9.64,0,0,1,1,24.4Q6.55,15.21,12.13,6a10.08,10.08,0,0,1,.7-1,2.58,2.58,0,0,1,3.35-1.11l20.3,5.85c2.07.6,2.62,1.74,1.57,3.64-1.26,2.28-2.65,4.49-4,6.73ZM37.5,12c0-1-.75-1.06-1.33-1.23-6.79-2-13.59-3.91-20.37-5.9a1.62,1.62,0,0,0-2,.64c-.21.28-.41.58-.6.89Q7.5,15.73,1.81,25.1a8,8,0,0,0-.64,1.28.93.93,0,0,0,.48,1.27Q10.77,33,19.87,38.35a1.41,1.41,0,0,0,1.88-.2,5,5,0,0,0,.86-1q7.18-12,14.36-24A10.67,10.67,0,0,0,37.5,12ZM46,32.05l-1.05-.49c-2.24-.93-4.51-1.79-6.7-2.83a4.79,4.79,0,0,0-4.11-.28,2.31,2.31,0,0,1-2.06-.18c-.72-.39-1.49-.7-2.28-1.05-.47.8-.89,1.51-1.3,2.23a1.36,1.36,0,0,0,.25.22l8.91,4.25a1,1,0,0,0,.6.12C40.74,33.41,43.23,32.77,46,32.05Zm-2,1.28-.08-.15-3.11.8L23.12,38.55a2.82,2.82,0,0,0-.71.47l.12.31A15.27,15.27,0,0,0,24.68,39c3.28-.94,6.54-1.92,9.82-2.88Z"/><path id="Path_2" data-name="Path 2" class="cls-1" d="M37.5,12a10.67,10.67,0,0,1-.53,1.2q-7.17,12-14.36,24a5,5,0,0,1-.86,1,1.41,1.41,0,0,1-1.88.2Q10.77,33,1.65,27.65a.93.93,0,0,1-.48-1.27,8,8,0,0,1,.64-1.28Q7.48,15.73,13.18,6.35a10.66,10.66,0,0,1,.6-.89,1.62,1.62,0,0,1,2-.64c6.78,2,13.58,3.93,20.37,5.9C36.75,10.89,37.46,11,37.5,12Z"/><path id="Path_3" data-name="Path 3" class="cls-1" d="M46,32.05c-2.76.72-5.25,1.36-7.74,2a1,1,0,0,1-.6-.12l-8.91-4.25a1.36,1.36,0,0,1-.25-.22c.41-.72.83-1.43,1.3-2.23.79.35,1.56.66,2.28,1.05a2.31,2.31,0,0,0,2.06.18,4.79,4.79,0,0,1,4.11.28c2.19,1,4.46,1.9,6.7,2.83Z"/><path id="Path_4" data-name="Path 4" class="cls-1" d="M44,33.33,34.5,36.12c-3.27,1-6.54,1.94-9.82,2.88a16.89,16.89,0,0,1-2.15.34L22.41,39a2.44,2.44,0,0,1,.72-.46Q31.94,36.25,40.76,34l3.11-.8Z"/></g><g id="Remano_Victor" data-name="Remano Victor" class="cls-2"><text class="cls-3" transform="translate(47.61 23.34) scale(0.99 1)">Remano V</text><text class="cls-4" transform="translate(172.5 23.34) scale(0.99 1)">i</text><text class="cls-3" transform="translate(184.79 23.34) scale(0.99 1)">ctor</text></g><g id="Frontend_Development" data-name="Frontend Development" class="cls-2"><text class="cls-5" transform="translate(51.31 43.74) scale(0.99 1)">Frontend Development</text></g></g></g></g></svg>